<svg width="165" height="43" viewBox="0 0 165 43" fill="none" xmlns="http://www.w3.org/2000/svg">
<g clip-path="url(#clip0_2_11)">
<mask id="mask0_2_11" style="mask-type:luminance" maskUnits="userSpaceOnUse" x="0" y="0" width="165" height="43">
<path d="M165 0H0V43H165V0Z" fill="white"/>
</mask>
<g mask="url(#mask0_2_11)">
<path d="M154 4.70294V11.3559H155.625V9.06177H157.25L158.5 11.3559H160.25L158.75 8.83235C159.125 8.60294 159.375 8.37353 159.625 8.02941C159.875 7.68529 160 7.34118 160 6.88235C160 6.42353 159.875 5.96471 159.625 5.73529C159.375 5.39118 159.125 5.16177 158.75 5.04706C158.375 4.93235 158.125 4.81765 157.75 4.81765H154V4.70294ZM157 8.02941H155.5V5.73529H157C157.25 5.73529 157.375 5.85 157.625 5.96471C157.875 6.07941 158 6.42353 158 6.76765C158 7.11177 157.875 7.45588 157.625 7.68529C157.5 7.91471 157.25 8.02941 157 8.02941Z" fill="#2B2B34"/>
<path d="M156.75 14.1088C160.409 14.1088 163.375 11.387 163.375 8.02942C163.375 4.67186 160.409 1.95001 156.75 1.95001C153.091 1.95001 150.125 4.67186 150.125 8.02942C150.125 11.387 153.091 14.1088 156.75 14.1088Z" stroke="#2B2B34" stroke-miterlimit="10"/>
<path d="M5.77273 31H2.81818L11.3636 7.72727H14.2727L22.8182 31H19.8636L12.9091 11.4091H12.7273L5.77273 31ZM6.86364 21.9091H18.7727V24.4091H6.86364V21.9091ZM26.0795 31V13.5455H28.6705V16.1818H28.8523C29.1705 15.3182 29.7462 14.6174 30.5795 14.0795C31.4129 13.5417 32.3523 13.2727 33.3977 13.2727C33.5947 13.2727 33.8409 13.2765 34.1364 13.2841C34.4318 13.2917 34.6553 13.303 34.8068 13.3182V16.0455C34.7159 16.0227 34.5076 15.9886 34.1818 15.9432C33.8636 15.8902 33.5265 15.8636 33.1705 15.8636C32.322 15.8636 31.5644 16.0417 30.8977 16.3977C30.2386 16.7462 29.7159 17.2311 29.3295 17.8523C28.9508 18.4659 28.7614 19.1667 28.7614 19.9545V31H26.0795ZM37.9858 31V13.5455H40.6676V31H37.9858ZM39.3494 10.6364C38.8267 10.6364 38.3759 10.4583 37.9972 10.1023C37.6259 9.74621 37.4403 9.31818 37.4403 8.81818C37.4403 8.31818 37.6259 7.89015 37.9972 7.53409C38.3759 7.17803 38.8267 7 39.3494 7C39.8722 7 40.3191 7.17803 40.6903 7.53409C41.0691 7.89015 41.2585 8.31818 41.2585 8.81818C41.2585 9.31818 41.0691 9.74621 40.6903 10.1023C40.3191 10.4583 39.8722 10.6364 39.3494 10.6364ZM57.9432 17.4545L55.5341 18.1364C55.3826 17.7348 55.1591 17.3447 54.8636 16.9659C54.5758 16.5795 54.1818 16.2614 53.6818 16.0114C53.1818 15.7614 52.5417 15.6364 51.7614 15.6364C50.6932 15.6364 49.803 15.8826 49.0909 16.375C48.3864 16.8598 48.0341 17.4773 48.0341 18.2273C48.0341 18.8939 48.2765 19.4205 48.7614 19.8068C49.2462 20.1932 50.0038 20.5152 51.0341 20.7727L53.625 21.4091C55.1856 21.7879 56.3485 22.3674 57.1136 23.1477C57.8788 23.9205 58.2614 24.9167 58.2614 26.1364C58.2614 27.1364 57.9735 28.0303 57.3977 28.8182C56.8295 29.6061 56.0341 30.2273 55.0114 30.6818C53.9886 31.1364 52.7992 31.3636 51.4432 31.3636C49.6629 31.3636 48.1894 30.9773 47.0227 30.2045C45.8561 29.4318 45.1174 28.303 44.8068 26.8182L47.3523 26.1818C47.5947 27.1212 48.053 27.8258 48.7273 28.2955C49.4091 28.7652 50.2992 29 51.3977 29C52.6477 29 53.6402 28.7348 54.375 28.2045C55.1174 27.6667 55.4886 27.0227 55.4886 26.2727C55.4886 25.6667 55.2765 25.1591 54.8523 24.75C54.428 24.3333 53.7765 24.0227 52.8977 23.8182L49.9886 23.1364C48.3902 22.7576 47.2159 22.1705 46.4659 21.375C45.7235 20.572 45.3523 19.5682 45.3523 18.3636C45.3523 17.3788 45.6288 16.5076 46.1818 15.75C46.7424 14.9924 47.5038 14.3977 48.4659 13.9659C49.4356 13.5341 50.5341 13.3182 51.7614 13.3182C53.4886 13.3182 54.8447 13.697 55.8295 14.4545C56.822 15.2121 57.5265 16.2121 57.9432 17.4545ZM69.8892 13.5455V15.8182H60.8438V13.5455H69.8892ZM63.4801 9.36364H66.1619V26C66.1619 26.7576 66.2718 27.3258 66.4915 27.7045C66.7188 28.0758 67.0066 28.3258 67.3551 28.4545C67.7112 28.5758 68.0862 28.6364 68.4801 28.6364C68.7756 28.6364 69.018 28.6212 69.2074 28.5909C69.3968 28.553 69.5483 28.5227 69.6619 28.5L70.2074 30.9091C70.0256 30.9773 69.7718 31.0455 69.446 31.1136C69.1203 31.1894 68.7074 31.2273 68.2074 31.2273C67.4498 31.2273 66.7074 31.0644 65.9801 30.7386C65.2604 30.4129 64.6619 29.9167 64.1847 29.25C63.715 28.5833 63.4801 27.7424 63.4801 26.7273V9.36364ZM80.8267 31.3636C79.2509 31.3636 77.8684 30.9886 76.679 30.2386C75.4972 29.4886 74.5729 28.4394 73.9062 27.0909C73.2472 25.7424 72.9176 24.1667 72.9176 22.3636C72.9176 20.5455 73.2472 18.9583 73.9062 17.6023C74.5729 16.2462 75.4972 15.1932 76.679 14.4432C77.8684 13.6932 79.2509 13.3182 80.8267 13.3182C82.4025 13.3182 83.7813 13.6932 84.9631 14.4432C86.1525 15.1932 87.0767 16.2462 87.7358 17.6023C88.4025 18.9583 88.7358 20.5455 88.7358 22.3636C88.7358 24.1667 88.4025 25.7424 87.7358 27.0909C87.0767 28.4394 86.1525 29.4886 84.9631 30.2386C83.7813 30.9886 82.4025 31.3636 80.8267 31.3636ZM80.8267 28.9545C82.0237 28.9545 83.0085 28.6477 83.7812 28.0341C84.554 27.4205 85.1259 26.6136 85.4972 25.6136C85.8684 24.6136 86.054 23.5303 86.054 22.3636C86.054 21.197 85.8684 20.1098 85.4972 19.1023C85.1259 18.0947 84.554 17.2803 83.7812 16.6591C83.0085 16.0379 82.0237 15.7273 80.8267 15.7273C79.6297 15.7273 78.6449 16.0379 77.8722 16.6591C77.0994 17.2803 76.5275 18.0947 76.1562 19.1023C75.785 20.1098 75.5994 21.197 75.5994 22.3636C75.5994 23.5303 75.785 24.6136 76.1562 25.6136C76.5275 26.6136 77.0994 27.4205 77.8722 28.0341C78.6449 28.6477 79.6297 28.9545 80.8267 28.9545ZM99.9205 31.3636C98.2841 31.3636 96.875 30.9773 95.6932 30.2045C94.5114 29.4318 93.6023 28.3674 92.9659 27.0114C92.3295 25.6553 92.0114 24.1061 92.0114 22.3636C92.0114 20.5909 92.3371 19.0265 92.9886 17.6705C93.6477 16.3068 94.5644 15.2424 95.7386 14.4773C96.9205 13.7045 98.2992 13.3182 99.875 13.3182C101.102 13.3182 102.208 13.5455 103.193 14C104.178 14.4545 104.985 15.0909 105.614 15.9091C106.242 16.7273 106.633 17.6818 106.784 18.7727H104.102C103.898 17.9773 103.443 17.2727 102.739 16.6591C102.042 16.0379 101.102 15.7273 99.9205 15.7273C98.875 15.7273 97.9583 16 97.1705 16.5455C96.3902 17.0833 95.7803 17.8447 95.3409 18.8295C94.9091 19.8068 94.6932 20.9545 94.6932 22.2727C94.6932 23.6212 94.9053 24.7955 95.3295 25.7955C95.7614 26.7955 96.3674 27.572 97.1477 28.125C97.9356 28.678 98.8598 28.9545 99.9205 28.9545C100.617 28.9545 101.25 28.8333 101.818 28.5909C102.386 28.3485 102.867 28 103.261 27.5455C103.655 27.0909 103.936 26.5455 104.102 25.9091H106.784C106.633 26.9394 106.258 27.8674 105.659 28.6932C105.068 29.5114 104.284 30.1629 103.307 30.6477C102.337 31.125 101.208 31.3636 99.9205 31.3636ZM110.705 31V13.5455H113.295V16.1818H113.477C113.795 15.3182 114.371 14.6174 115.205 14.0795C116.038 13.5417 116.977 13.2727 118.023 13.2727C118.22 13.2727 118.466 13.2765 118.761 13.2841C119.057 13.2917 119.28 13.303 119.432 13.3182V16.0455C119.341 16.0227 119.133 15.9886 118.807 15.9432C118.489 15.8902 118.152 15.8636 117.795 15.8636C116.947 15.8636 116.189 16.0417 115.523 16.3977C114.864 16.7462 114.341 17.2311 113.955 17.8523C113.576 18.4659 113.386 19.1667 113.386 19.9545V31H110.705ZM127.747 31.4091C126.641 31.4091 125.637 31.2008 124.736 30.7841C123.834 30.3598 123.118 29.75 122.588 28.9545C122.058 28.1515 121.793 27.1818 121.793 26.0455C121.793 25.0455 121.99 24.2348 122.384 23.6136C122.777 22.9848 123.304 22.4924 123.963 22.1364C124.622 21.7803 125.349 21.5152 126.145 21.3409C126.948 21.1591 127.755 21.0152 128.565 20.9091C129.626 20.7727 130.486 20.6705 131.145 20.6023C131.812 20.5265 132.296 20.4015 132.599 20.2273C132.91 20.053 133.065 19.75 133.065 19.3182V19.2273C133.065 18.1061 132.759 17.2348 132.145 16.6136C131.539 15.9924 130.618 15.6818 129.384 15.6818C128.103 15.6818 127.099 15.9621 126.372 16.5227C125.645 17.0833 125.134 17.6818 124.838 18.3182L122.293 17.4091C122.747 16.3485 123.353 15.5227 124.111 14.9318C124.876 14.3333 125.709 13.9167 126.611 13.6818C127.52 13.4394 128.414 13.3182 129.293 13.3182C129.853 13.3182 130.497 13.3864 131.224 13.5227C131.959 13.6515 132.668 13.9205 133.349 14.3295C134.039 14.7386 134.611 15.3561 135.065 16.1818C135.52 17.0076 135.747 18.1136 135.747 19.5V31H133.065V28.6364H132.929C132.747 29.0152 132.444 29.4205 132.02 29.8523C131.596 30.2841 131.031 30.6515 130.327 30.9545C129.622 31.2576 128.762 31.4091 127.747 31.4091ZM128.156 29C129.217 29 130.111 28.7917 130.838 28.375C131.573 27.9583 132.126 27.4205 132.497 26.7614C132.876 26.1023 133.065 25.4091 133.065 24.6818V22.2273C132.952 22.3636 132.702 22.4886 132.315 22.6023C131.937 22.7083 131.497 22.803 130.997 22.8864C130.505 22.9621 130.024 23.0303 129.554 23.0909C129.092 23.1439 128.717 23.1894 128.429 23.2273C127.732 23.3182 127.08 23.4659 126.474 23.6705C125.876 23.8674 125.391 24.1667 125.02 24.5682C124.656 24.9621 124.474 25.5 124.474 26.1818C124.474 27.1136 124.819 27.8182 125.509 28.2955C126.205 28.7652 127.088 29 128.156 29ZM148.233 13.5455V15.8182H139.188V13.5455H148.233ZM141.824 9.36364H144.506V26C144.506 26.7576 144.616 27.3258 144.835 27.7045C145.063 28.0758 145.35 28.3258 145.699 28.4545C146.055 28.5758 146.43 28.6364 146.824 28.6364C147.119 28.6364 147.362 28.6212 147.551 28.5909C147.741 28.553 147.892 28.5227 148.006 28.5L148.551 30.9091C148.369 30.9773 148.116 31.0455 147.79 31.1136C147.464 31.1894 147.051 31.2273 146.551 31.2273C145.794 31.2273 145.051 31.0644 144.324 30.7386C143.604 30.4129 143.006 29.9167 142.528 29.25C142.059 28.5833 141.824 27.7424 141.824 26.7273V9.36364Z" fill="black"/>
</g>
</g>
<defs>
<clipPath id="clip0_2_11">
<rect width="165" height="43" fill="white"/>
</clipPath>
</defs>
</svg>
